<?xml version="1.0" standalone="no"?><!-- Generator: Gravit.io --><svg xmlns="http://www.w3.org/2000/svg" xmlns:xlink="http://www.w3.org/1999/xlink" style="isolation:isolate" viewBox="0 0 500 500" width="500" height="500"><path d=" M 35.376 92.847 C 37.844 94.856 40.349 95.177 43.138 94.681 L 43.031 93.64 C 40.289 94.079 38.142 93.668 36.134 92.033 C 31.887 88.576 32.114 82.846 36.552 77.393 C 40.989 71.941 46.461 70.67 50.823 74.22 C 52.602 75.668 53.383 77.639 53.435 79.685 L 54.523 79.521 C 54.481 77.579 53.704 75.134 51.524 73.359 C 46.703 69.435 40.434 70.63 35.576 76.599 C 30.718 82.568 30.727 89.063 35.376 92.847 Z  M 51.245 105.763 C 55.32 109.08 61.423 107.559 66.281 101.59 C 71.139 95.622 71.295 89.451 67.22 86.135 C 63.146 82.818 57.136 84.224 52.277 90.193 C 47.419 96.161 47.17 102.446 51.245 105.763 Z  M 51.945 104.902 C 48.358 101.983 48.815 96.439 53.253 90.987 C 57.691 85.534 62.933 84.076 66.52 86.996 C 70.107 89.915 69.743 95.344 65.306 100.796 C 60.868 106.249 55.533 107.822 51.945 104.902 Z  M 62.544 114.388 L 63.434 115.112 L 74.995 100.907 C 75.953 99.73 76.941 98.34 77.87 97.14 L 77.928 97.187 L 76.548 101.168 L 72.452 114.055 L 73.227 114.686 L 85.042 108.082 L 88.574 105.852 L 88.66 105.922 C 87.674 107.075 86.542 108.349 85.584 109.525 L 74.023 123.73 L 74.941 124.477 L 90.356 105.538 L 89.036 104.463 L 77.947 110.703 L 73.985 113.109 L 73.871 113.015 L 75.364 108.601 L 79.28 96.522 L 77.96 95.448 L 62.544 114.388 Z  M 80.91 129.336 L 81.828 130.083 L 88.648 121.704 L 92.666 124.974 C 96.913 128.43 100.772 128.613 103.715 124.997 C 106.798 121.209 105.508 117.87 101.261 114.413 L 96.325 110.396 L 80.91 129.336 Z  M 89.302 120.9 L 96.59 111.947 L 100.263 114.936 C 104.338 118.253 105.448 120.874 102.739 124.203 C 100.076 127.475 97.05 127.206 92.976 123.89 L 89.302 120.9 Z  M 99.046 144.097 L 99.965 144.844 L 107.579 135.489 L 115.929 142.286 L 116.583 141.482 L 108.233 134.686 L 114.726 126.708 L 124.655 134.789 L 125.309 133.986 L 114.461 125.157 L 99.046 144.097 Z  M 115.575 157.55 L 126.882 166.752 L 127.536 165.949 L 117.148 157.494 L 124.388 148.598 L 132.882 155.511 L 133.536 154.708 L 125.042 147.795 L 131.255 140.161 L 141.356 148.383 L 142.01 147.579 L 130.991 138.61 L 115.575 157.55 Z  M 137.621 176.066 C 141.351 179.102 145.548 178.987 147.883 176.117 C 150.266 173.19 149.11 170.389 147.643 167.621 L 145.79 163.918 C 144.817 162.125 143.389 159.483 145.304 157.13 C 147.079 154.949 150.141 155.056 152.953 157.345 C 155.019 159.026 156.03 161.185 156.197 163.324 L 157.285 163.16 C 157.094 161.049 156.065 158.446 153.654 156.484 C 150.44 153.868 146.535 153.743 144.339 156.44 C 142.05 159.252 143.55 162.333 144.688 164.452 L 146.54 168.155 C 147.877 170.674 148.974 172.902 146.918 175.427 C 144.956 177.838 141.536 177.821 138.322 175.205 C 135.911 173.243 134.628 170.481 134.502 167.706 L 133.356 167.824 C 133.494 170.703 134.694 173.683 137.621 176.066 Z  M 154.373 189.128 L 155.291 189.875 L 170.052 171.739 L 176.767 177.204 L 177.421 176.401 L 163.073 164.723 L 162.419 165.526 L 169.134 170.992 L 154.373 189.128 Z  M 178.109 194.898 C 174.838 192.236 174.726 189.091 177.201 186.049 C 179.397 183.352 183.181 182.806 185.936 185.048 C 189.723 188.131 189.19 192.42 186.202 196.619 C 182.574 197.149 179.802 196.276 178.109 194.898 Z  M 170.335 202.692 C 174.266 205.892 180.002 206.171 186.355 198.366 C 190.793 192.913 190.837 187.701 186.647 184.291 C 183.576 181.792 178.946 182.031 176.283 185.302 C 173.293 188.975 173.839 192.759 177.398 195.655 C 179.636 197.477 182.4 198.009 185.343 197.733 C 179.598 204.792 174.518 204.761 171.046 201.935 C 169.497 200.674 168.54 199.036 168.29 197.115 L 167.202 197.28 C 167.538 199.27 168.383 201.104 170.335 202.692 Z  M 190.252 225.581 L 191.629 226.702 L 192.143 226.071 L 190.421 224.67 C 187.064 221.937 187.164 220.349 188.869 218.254 C 190.434 216.331 191.919 214.916 193.647 212.793 C 194.932 211.214 195.262 209.813 193.648 207.927 L 193.741 207.812 C 195.916 209.009 197.221 208.402 198.506 206.824 C 200.024 204.959 201.458 202.786 202.882 201.036 C 204.587 198.941 206.122 198.521 209.48 201.253 L 211.202 202.655 L 211.715 202.023 L 210.338 200.902 C 206.808 198.029 204.427 197.379 202.115 200.22 C 200.527 202.172 198.94 204.649 197.445 206.486 C 196.487 207.662 194.836 208.226 191.22 205.283 L 190.66 205.972 C 194.275 208.915 194.058 210.647 193.101 211.823 C 191.443 213.861 189.643 215.544 187.914 217.668 C 185.602 220.509 186.722 222.708 190.252 225.581 Z  M 209.018 234.176 C 210.682 235.531 212.167 236.167 213.851 236.678 L 214.124 235.756 C 212.603 235.281 211.221 234.634 209.729 233.419 C 206.515 230.803 207.17 228.474 209.412 225.719 L 215.905 217.742 L 223.424 223.861 L 224.078 223.058 L 216.559 216.938 L 220.296 212.347 L 219.55 211.74 L 215.699 216.238 L 211.358 212.896 L 210.797 213.584 L 215.045 217.041 L 208.645 224.904 C 206.029 228.118 205.344 231.186 209.018 234.176 Z  M 223.423 245.901 C 227.01 248.82 232.172 248.633 235.862 244.099 C 239.599 239.507 238.735 234.415 235.148 231.495 C 231.561 228.576 226.399 228.763 222.662 233.355 C 218.972 237.889 219.836 242.981 223.423 245.901 Z  M 224.077 245.097 C 220.806 242.435 220.497 237.89 223.58 234.102 C 226.663 230.314 231.223 229.636 234.494 232.299 C 237.765 234.961 238.027 239.563 234.944 243.351 C 231.861 247.139 227.349 247.76 224.077 245.097 Z  M 240.641 259.915 C 244.228 262.834 249.39 262.647 253.08 258.113 C 256.817 253.521 255.953 248.429 252.366 245.509 C 248.779 242.59 243.617 242.777 239.88 247.369 C 236.19 251.903 237.054 256.995 240.641 259.915 Z  M 241.295 259.111 C 238.024 256.449 237.715 251.904 240.798 248.116 C 243.881 244.328 248.44 243.65 251.712 246.313 C 254.983 248.975 255.245 253.577 252.162 257.365 C 249.079 261.153 244.566 261.774 241.295 259.111 Z  M 248.449 271.422 L 262.223 282.633 L 263.111 281.543 L 249.337 270.332 L 248.449 271.422 Z  M 275.938 288.643 C 278.434 290.675 280.575 291.034 282.411 291.24 L 282.616 290.167 C 280.578 290.034 278.543 289.428 276.592 287.839 C 273.291 285.153 272.238 280.527 275.521 276.377 L 287.459 286.093 C 287.796 285.796 288.03 285.509 288.263 285.222 C 291.486 281.262 290.991 276.947 287.318 273.957 C 283.76 271.061 278.246 271.153 274.603 275.63 C 270.959 280.106 272.035 285.466 275.938 288.643 Z  M 286.664 274.761 C 289.649 277.19 290.301 280.726 287.366 284.683 L 276.203 275.597 C 279.444 272.319 283.881 272.495 286.664 274.761 Z  M 286.032 296.286 L 299.003 306.843 L 299.657 306.04 L 288.063 296.604 L 309.449 293.305 L 309.823 292.846 L 298.402 283.551 L 297.748 284.354 L 307.791 292.529 L 286.406 295.827 L 286.032 296.286 Z  M 300.103 313.464 L 313.877 324.675 L 314.765 323.584 L 300.99 312.373 L 300.103 313.464 Z  M 326.035 328.845 L 326.838 329.499 L 337.349 316.586 L 343.949 321.958 L 344.603 321.154 L 338.003 315.782 L 339.591 313.831 C 341.786 311.133 344.476 310.174 347.517 312.649 C 348.838 313.724 349.548 314.493 350.354 316.198 L 351.259 315.79 C 350.384 313.933 349.348 312.804 348.171 311.846 C 344.843 309.137 341.543 309.791 338.694 313.292 L 337.199 315.128 L 332.916 311.833 L 332.355 312.522 L 336.545 315.932 L 326.035 328.845 Z  M 343.948 343.997 C 347.535 346.917 352.697 346.729 356.387 342.195 C 360.124 337.604 359.26 332.511 355.673 329.592 C 352.086 326.672 346.924 326.86 343.187 331.451 C 339.497 335.985 340.361 341.078 343.948 343.997 Z  M 344.602 343.194 C 341.331 340.531 341.022 335.987 344.105 332.199 C 347.188 328.411 351.748 327.733 355.019 330.395 C 358.29 333.058 358.552 337.66 355.469 341.448 C 352.386 345.236 347.873 345.856 344.602 343.194 Z  M 357.716 354.63 L 358.576 355.331 L 365.724 346.55 C 370.348 344.971 373.453 345.494 375.834 347.433 C 376.925 348.32 377.296 348.861 378.025 350.075 L 378.966 349.505 C 378.45 348.322 377.54 347.389 376.65 346.665 C 373.838 344.376 370.263 344.138 366.995 345.105 L 366.938 345.058 L 369.626 341.521 L 368.88 340.914 L 357.716 354.63 Z  M 379.245 372.726 C 381.741 374.758 383.882 375.117 385.718 375.323 L 385.923 374.25 C 383.885 374.117 381.85 373.51 379.899 371.922 C 376.598 369.236 375.545 364.61 378.828 360.46 L 390.766 370.176 C 391.103 369.878 391.337 369.591 391.57 369.304 C 394.793 365.344 394.298 361.029 390.625 358.04 C 387.067 355.144 381.553 355.236 377.91 359.712 C 374.266 364.189 375.342 369.549 379.245 372.726 Z  M 389.971 358.843 C 392.956 361.272 393.608 364.809 390.673 368.765 L 379.511 359.68 C 382.751 356.402 387.188 356.578 389.971 358.843 Z  M 386.192 383.532 L 399.966 394.743 L 400.854 393.653 L 387.079 382.442 L 386.192 383.532 Z  M 406.786 394.57 L 407.647 395.27 L 416.196 384.768 C 418.666 383.725 420.274 383.508 421.623 384.605 C 423.058 385.773 422.841 387.505 421.019 389.743 L 412.985 399.615 L 413.846 400.315 L 422.394 389.813 C 424.865 388.77 426.473 388.552 427.822 389.65 C 429.256 390.818 429.04 392.55 427.218 394.788 L 419.183 404.66 L 420.044 405.36 L 428.172 395.374 C 430.414 392.619 430.427 390.435 428.533 388.893 C 427.012 387.656 425.479 387.839 423.109 388.582 C 424.091 386.614 423.884 385.11 422.335 383.848 C 420.814 382.611 419.281 382.794 417.327 383.494 L 417.27 383.448 L 418.697 381.46 L 417.951 380.853 L 406.786 394.57 Z  M 430.898 414.767 C 433.395 416.799 435.536 417.158 437.371 417.364 L 437.577 416.291 C 435.538 416.158 433.503 415.552 431.552 413.963 C 428.252 411.277 427.199 406.651 430.481 402.501 L 442.419 412.217 C 442.757 411.92 442.99 411.633 443.224 411.346 C 446.447 407.386 445.952 403.071 442.279 400.081 C 438.72 397.185 433.207 397.277 429.563 401.754 C 425.919 406.23 426.995 411.591 430.898 414.767 Z  M 441.625 400.885 C 444.609 403.314 445.261 406.85 442.327 410.807 L 431.164 401.721 C 434.405 398.443 438.841 398.619 441.625 400.885 Z  M 438.074 427.286 L 439.451 428.407 C 442.981 431.28 445.333 431.907 447.645 429.066 C 449.374 426.942 450.686 424.861 452.344 422.824 C 453.302 421.647 454.953 421.083 458.54 424.003 L 459.101 423.314 C 455.514 420.395 455.731 418.663 456.688 417.486 C 458.183 415.65 460.258 413.57 461.846 411.618 C 464.158 408.777 463.067 406.601 459.538 403.728 L 458.16 402.607 L 457.646 403.239 L 459.368 404.64 C 462.726 407.373 462.683 409.008 460.978 411.102 C 459.553 412.853 457.689 414.675 456.17 416.54 C 454.886 418.118 454.499 419.473 456.141 421.382 L 456.048 421.497 C 453.845 420.277 452.597 420.931 451.312 422.509 C 449.584 424.633 448.529 426.398 446.964 428.32 C 445.259 430.415 443.667 430.789 440.309 428.056 L 438.588 426.655 L 438.074 427.286 Z " fill-rule="evenodd" fill="rgb(0,0,0)"/><rect x="0" y="0" width="500" height="500" transform="matrix(1,0,0,1,0,0)" fill="rgb(255,255,255)"/></svg>